<?xml version="1.0" encoding="utf-8"?>
<svg version="1.1" xmlns:xlink="http://www.w3.org/1999/xlink" width="156px" height="156px" xmlns="http://www.w3.org/2000/svg">
  <g transform="matrix(1 0 0 1 -713 -250 )">
    <path d="M 128.578125 66.1171875  C 129.796875 64.8984375  130.40625 63.375  130.40625 61.546875  C 130.40625 59.6510416666667  129.796875 58.09375  128.578125 56.875  L 119.3359375 47.734375  C 118.049479166667 46.4479166666667  116.526041666667 45.8046875  114.765625 45.8046875  C 113.005208333333 45.8046875  111.481770833333 46.4479166666667  110.1953125 47.734375  L 68.7578125 89.0703125  L 45.8046875 66.1171875  C 44.5182291666667 64.8307291666667  42.9947916666667 64.1875  41.234375 64.1875  C 39.4739583333333 64.1875  37.9505208333333 64.8307291666667  36.6640625 66.1171875  L 27.421875 75.2578125  C 26.203125 76.4765625  25.59375 78.0338541666667  25.59375 79.9296875  C 25.59375 81.7578125  26.203125 83.28125  27.421875 84.5  L 64.1875 121.265625  C 65.4739583333333 122.552083333333  66.9973958333333 123.1953125  68.7578125 123.1953125  C 70.5859375 123.1953125  72.1432291666667 122.552083333333  73.4296875 121.265625  L 128.578125 66.1171875  Z M 145.5390625 38.84765625  C 152.513020833333 50.7981770833333  156 63.8489583333333  156 78  C 156 92.1510416666667  152.513020833333 105.201822916667  145.5390625 117.15234375  C 138.565104166667 129.102864583333  129.102864583333 138.565104166667  117.15234375 145.5390625  C 105.201822916667 152.513020833333  92.1510416666667 156  78 156  C 63.8489583333333 156  50.7981770833333 152.513020833333  38.84765625 145.5390625  C 26.8971354166667 138.565104166667  17.4348958333333 129.102864583333  10.4609375 117.15234375  C 3.48697916666667 105.201822916667  0 92.1510416666667  0 78  C 0 63.8489583333333  3.48697916666667 50.7981770833333  10.4609375 38.84765625  C 17.4348958333333 26.8971354166667  26.8971354166667 17.4348958333333  38.84765625 10.4609375  C 50.7981770833333 3.48697916666665  63.8489583333333 0  78 0  C 92.1510416666667 0  105.201822916667 3.48697916666665  117.15234375 10.4609375  C 129.102864583333 17.4348958333333  138.565104166667 26.8971354166667  145.5390625 38.84765625  Z " fill-rule="nonzero" fill="#95f204" stroke="none" transform="matrix(1 0 0 1 713 250 )" />
  </g>
</svg>