<?xml version="1.0" encoding="utf-8"?>
<svg version="1.1" xmlns:xlink="http://www.w3.org/1999/xlink" width="100px" height="100px" xmlns="http://www.w3.org/2000/svg">
  <g transform="matrix(1 0 0 1 -750 -490 )">
    <path d="M 82.421875 42.3828125  C 83.203125 41.6015625  83.59375 40.625  83.59375 39.453125  C 83.59375 38.2378472222222  83.203125 37.2395833333333  82.421875 36.4583333333333  L 76.4973958333333 30.5989583333333  C 75.6727430555556 29.7743055555555  74.6961805555556 29.3619791666667  73.5677083333333 29.3619791666667  C 72.4392361111111 29.3619791666667  71.4626736111111 29.7743055555555  70.6380208333333 30.5989583333333  L 44.0755208333333 57.0963541666667  L 29.3619791666667 42.3828125  C 28.5373263888889 41.5581597222222  27.5607638888889 41.1458333333333  26.4322916666667 41.1458333333333  C 25.3038194444444 41.1458333333333  24.3272569444444 41.5581597222222  23.5026041666667 42.3828125  L 17.578125 48.2421875  C 16.796875 49.0234375  16.40625 50.0217013888889  16.40625 51.2369791666667  C 16.40625 52.4088541666667  16.796875 53.3854166666667  17.578125 54.1666666666667  L 41.1458333333333 77.734375  C 41.9704861111111 78.5590277777778  42.9470486111111 78.9713541666667  44.0755208333333 78.9713541666667  C 45.2473958333333 78.9713541666667  46.2456597222222 78.5590277777778  47.0703125 77.734375  L 82.421875 42.3828125  Z M 93.2942708333333 24.90234375  C 97.7647569444444 32.5629340277778  100 40.9288194444444  100 50  C 100 59.0711805555556  97.7647569444444 67.4370659722222  93.2942708333333 75.09765625  C 88.8237847222222 82.7582465277778  82.7582465277778 88.8237847222222  75.09765625 93.2942708333333  C 67.4370659722222 97.7647569444445  59.0711805555556 100  50 100  C 40.9288194444445 100  32.5629340277778 97.7647569444445  24.90234375 93.2942708333333  C 17.2417534722222 88.8237847222222  11.1762152777778 82.7582465277778  6.70572916666667 75.09765625  C 2.23524305555556 67.4370659722222  0 59.0711805555556  0 50  C 0 40.9288194444444  2.23524305555556 32.5629340277778  6.70572916666667 24.90234375  C 11.1762152777778 17.2417534722222  17.2417534722222 11.1762152777778  24.90234375 6.70572916666666  C 32.5629340277778 2.23524305555555  40.9288194444445 0  50 0  C 59.0711805555556 0  67.4370659722222 2.23524305555555  75.09765625 6.70572916666666  C 82.7582465277778 11.1762152777778  88.8237847222222 17.2417534722222  93.2942708333333 24.90234375  Z " fill-rule="nonzero" fill="#95f204" stroke="none" transform="matrix(1 0 0 1 750 490 )" />
  </g>
</svg>