<?xml version="1.0" encoding="utf-8"?>
<svg version="1.1" xmlns:xlink="http://www.w3.org/1999/xlink" width="37px" height="34px" xmlns="http://www.w3.org/2000/svg">
  <g transform="matrix(1 0 0 1 -1327 -41 )">
    <path d="M 8.53846153846154 25  L 8.53846153846154 31  L 28.4615384615385 31  L 28.4615384615385 25  L 8.53846153846154 25  Z M 9 3  L 9 17  L 28.4615384615385 17  L 28.4615384615385 8.5  L 24.9038461538462 8.5  C 24.3108974358974 8.5  23.806891025641 8.29340277777778  23.3918269230769 7.88020833333333  C 22.9767628205128 7.46701388888889  22.7692307692308 6.96527777777778  22.7692307692308 6.375  L 22.7692307692308 3  L 9 3  Z M 33.7313701923077 19.4127604166667  C 34.0130208333333 19.1323784722222  34.1538461538462 18.8003472222222  34.1538461538462 18.4166666666667  C 34.1538461538462 18.0329861111111  34.0130208333333 17.7009548611111  33.7313701923077 17.4205729166667  C 33.4497195512821 17.1401909722222  33.1161858974359 17  32.7307692307692 17  C 32.3453525641026 17  32.0118189102564 17.1401909722222  31.7301682692308 17.4205729166667  C 31.4485176282051 17.7009548611111  31.3076923076923 18.0329861111111  31.3076923076923 18.4166666666667  C 31.3076923076923 18.8003472222222  31.4485176282051 19.1323784722222  31.7301682692308 19.4127604166667  C 32.0118189102564 19.6931423611111  32.3453525641026 19.8333333333333  32.7307692307692 19.8333333333333  C 33.1161858974359 19.8333333333333  33.4497195512821 19.6931423611111  33.7313701923077 19.4127604166667  Z M 35.7436899038462 15.4173177083333  C 36.5812299679487 16.2510850694444  37 17.2508680555556  37 18.4166666666667  L 37 27.625  C 37 27.8168402777778  36.9295873397436 27.9828559027778  36.7887620192308 28.123046875  C 36.6479366987179 28.2632378472222  36.4811698717949 28.3333333333333  36.2884615384615 28.3333333333333  L 31.3076923076923 28.3333333333333  L 31.3076923076923 31.875  C 31.3076923076923 32.4652777777778  31.1001602564103 32.9670138888889  30.6850961538462 33.3802083333333  C 30.2700320512821 33.7934027777778  29.7660256410256 34  29.1730769230769 34  L 7.82692307692308 34  C 7.23397435897436 34  6.72996794871795 33.7934027777778  6.31490384615385 33.3802083333333  C 5.89983974358974 32.9670138888889  5.69230769230769 32.4652777777778  5.69230769230769 31.875  L 5.69230769230769 28.3333333333333  L 0.711538461538462 28.3333333333333  C 0.518830128205128 28.3333333333333  0.352063301282051 28.2632378472222  0.211237980769231 28.123046875  C 0.0704126602564103 27.9828559027778  0 27.8168402777778  0 27.625  L 0 18.4166666666667  C 0 17.2508680555556  0.418770032051282 16.2510850694444  1.25631009615385 15.4173177083333  C 2.09385016025641 14.5835503472222  3.09815705128205 14.1666666666667  4.26923076923077 14.1666666666667  L 6 14.1666666666667  L 6 2.125  C 5.69230769230769 1.53472222222222  5.89983974358974 1.03298611111111  6.31490384615385 0.619791666666665  C 6.72996794871795 0.206597222222221  7.23397435897436 0  7.82692307692308 0  L 22.7692307692308 0  C 23.3621794871795 0  24.0144230769231 0.147569444444441  24.7259615384615 0.442708333333335  C 25.4375 0.737847222222221  26.0008012820513 1.09201388888889  26.4158653846154 1.50520833333333  L 29.7956730769231 4.86979166666667  C 30.2107371794872 5.28298611111111  30.5665064102564 5.84375  30.8629807692308 6.55208333333333  C 31.1594551282051 7.26041666666667  31.3076923076923 7.90972222222222  31.3076923076923 8.5  L 31.3076923076923 14.1666666666667  L 32.7307692307692 14.1666666666667  C 33.901842948718 14.1666666666667  34.9061498397436 14.5835503472222  35.7436899038462 15.4173177083333  Z " fill-rule="nonzero" fill="#00bfbf" stroke="none" transform="matrix(1 0 0 1 1327 41 )" />
  </g>
</svg>