<?xml version="1.0" encoding="utf-8"?>
<svg version="1.1" xmlns:xlink="http://www.w3.org/1999/xlink" width="35px" height="27px" xmlns="http://www.w3.org/2000/svg">
  <g transform="matrix(1 0 0 1 -497 -283 )">
    <path d="M 34.3677419354839 3.72727272727273  C 34.789247311828 4.15151515151515  35 4.66666666666667  35 5.27272727272727  C 35 5.87878787878788  34.789247311828 6.39393939393939  34.3677419354839 6.81818181818182  L 18.0193548387097 23.2727272727273  L 14.9483870967742 26.3636363636364  C 14.5268817204301 26.7878787878788  14.0150537634409 27  13.4129032258065 27  C 12.810752688172 27  12.2989247311828 26.7878787878788  11.8774193548387 26.3636363636364  L 8.80645161290322 23.2727272727273  L 0.632258064516129 15.0454545454545  C 0.210752688172043 14.6212121212121  0 14.1060606060606  0 13.5  C 0 12.8939393939394  0.210752688172043 12.3787878787879  0.632258064516129 11.9545454545455  L 3.70322580645161 8.86363636363636  C 4.1247311827957 8.43939393939394  4.63655913978495 8.22727272727272  5.23870967741936 8.22727272727273  C 5.84086021505377 8.22727272727272  6.35268817204301 8.43939393939394  6.7741935483871 8.86363636363636  L 13.4129032258065 15.5681818181818  L 28.2258064516129 0.636363636363636  C 28.647311827957 0.212121212121211  29.1591397849462 0  29.7612903225806 0  C 30.3634408602151 0  30.8752688172043 0.212121212121211  31.2967741935484 0.636363636363636  L 34.3677419354839 3.72727272727273  Z " fill-rule="nonzero" fill="#81d3f8" stroke="none" transform="matrix(1 0 0 1 497 283 )" />
  </g>
</svg>